<?xml version="1.0" standalone="no"?>
<!DOCTYPE svg PUBLIC "-//W3C//DTD SVG 20010904//EN"
 "http://www.w3.org/TR/2001/REC-SVG-20010904/DTD/svg10.dtd">
<svg version="1.0" xmlns="http://www.w3.org/2000/svg"
 width="500.000000pt" height="499.000000pt" viewBox="0 0 500.000000 499.000000"
 preserveAspectRatio="xMidYMid meet">

<g transform="translate(0.000000,499.000000) scale(0.100000,-0.100000)"
fill="#000000" stroke="none">
<path d="M2436 4028 c-6 -29 -26 -261 -23 -263 1 -1 27 -5 58 -8 l56 -5 6 55
c3 30 8 57 11 60 2 3 39 2 80 -2 l76 -7 0 -58 c0 -56 1 -58 31 -64 17 -3 42
-6 54 -6 26 0 31 18 41 181 l7 106 -39 6 c-73 12 -72 13 -80 -54 l-7 -60 -76
6 c-42 4 -78 9 -81 12 -2 2 -5 30 -5 61 l0 57 -52 3 c-48 3 -53 1 -57 -20z"/>
<path d="M2960 3932 c-49 -24 -80 -75 -80 -131 0 -56 23 -93 81 -132 132 -87
261 -75 305 28 43 100 -19 188 -164 233 -79 24 -97 25 -142 2z m161 -87 c75
-39 52 -145 -32 -145 -82 0 -128 82 -74 135 28 29 63 32 106 10z"/>
<path d="M1613 3787 c-78 -51 -142 -94 -142 -97 -1 -3 8 -16 18 -29 l18 -23
42 27 c24 14 48 24 55 22 6 -3 36 -43 65 -91 l54 -86 36 22 c68 40 68 37 7
132 -31 48 -56 91 -56 96 0 5 20 21 45 36 25 14 45 28 45 30 0 9 -33 54 -39
53 -3 0 -70 -42 -148 -92z"/>
<path d="M3323 3662 l-92 -107 39 -37 c22 -21 44 -38 49 -38 5 0 19 14 31 30
l21 30 45 -36 c50 -41 60 -67 44 -109 -10 -25 -8 -32 22 -62 17 -18 36 -33 41
-33 18 0 36 35 37 68 0 29 3 32 31 32 20 0 40 10 60 29 60 60 31 116 -129 255
-55 47 -101 86 -103 85 -2 0 -45 -48 -96 -107z m200 -66 c48 -44 61 -81 32
-92 -16 -6 -62 20 -109 62 l-28 25 23 25 c12 13 25 24 28 24 3 0 27 -20 54
-44z"/>
<path d="M1347 3585 c-20 -24 -37 -45 -37 -47 0 -2 32 -30 70 -62 39 -31 70
-60 70 -64 0 -4 -56 -6 -124 -4 l-124 3 -46 -54 c-25 -30 -46 -58 -45 -63 0
-5 48 -49 106 -98 l107 -90 38 45 38 44 -28 25 c-15 14 -50 44 -77 67 l-50 42
136 1 135 0 42 51 c23 29 42 55 42 59 0 4 -35 36 -77 72 -43 36 -92 77 -109
91 l-31 26 -36 -44z"/>
<path d="M2300 3544 c-461 -84 -827 -443 -917 -899 -21 -105 -21 -314 0 -425
63 -341 289 -641 602 -800 181 -92 335 -125 549 -117 265 10 463 83 668 245
365 290 509 777 364 1233 -147 462 -589 782 -1075 778 -64 -1 -150 -7 -191
-15z m125 -26 c-22 -11 -54 -34 -72 -51 -32 -30 -33 -30 -89 -18 -32 6 -76 11
-98 11 -38 1 -40 2 -22 15 39 30 173 62 261 63 l60 1 -40 -21z m245 -13 c39
-13 75 -27 81 -31 7 -4 -17 -15 -52 -24 -35 -10 -93 -30 -128 -45 -67 -28
-106 -28 -175 0 -17 6 -39 15 -50 19 -24 8 -9 28 52 63 100 59 143 62 272 18z
m81 4 c70 -23 96 -39 62 -39 -21 0 -157 59 -137 60 6 0 40 -9 75 -21z m174
-85 c22 -12 54 -34 70 -48 l30 -25 -31 -1 c-17 0 -37 7 -44 14 -6 8 -34 29
-61 46 -83 54 -52 66 36 14z m-683 14 c32 -7 58 -15 58 -19 0 -4 -26 -10 -57
-13 -99 -10 -207 -25 -232 -32 -36 -10 -18 12 37 47 52 33 98 37 194 17z m629
-33 c38 -24 69 -48 69 -52 0 -5 -14 -14 -30 -22 -17 -7 -43 -25 -57 -40 l-27
-27 -76 31 c-41 18 -100 40 -130 49 -30 10 -62 20 -70 23 -36 12 149 80 223
82 18 1 55 -16 98 -44z m154 2 c48 -24 105 -66 105 -78 0 -16 -77 19 -133 61
-31 24 -57 45 -57 47 0 7 41 -8 85 -30z m-1049 -20 c-40 -34 -136 -85 -136
-72 0 12 73 69 114 90 72 36 78 30 22 -18z m369 23 c18 -8 17 -9 -7 -9 -16 -1
-28 4 -28 9 0 12 8 12 35 0z m-90 -73 c-14 -29 -26 -66 -29 -83 -2 -16 -1 -22
1 -14 3 8 18 45 35 83 l31 67 66 -6 c65 -7 101 -18 101 -32 -1 -4 -22 -20 -48
-37 -26 -16 -79 -58 -119 -92 -72 -63 -72 -63 -76 -35 -4 24 -4 23 -6 -7 -1
-25 -14 -47 -52 -90 -29 -31 -63 -59 -77 -63 -18 -5 -53 2 -111 23 -47 17
-114 33 -148 36 -35 3 -63 9 -63 14 0 17 101 157 143 197 33 32 58 47 103 59
62 16 160 29 231 32 l42 1 -24 -53z m381 -11 c54 -18 118 -43 142 -55 40 -20
41 -23 28 -44 -8 -12 -17 -37 -21 -54 -4 -18 -9 -33 -12 -33 -2 0 -37 29 -76
65 -40 36 -99 84 -132 106 -33 22 -62 42 -64 45 -13 13 47 0 135 -30z m-86
-23 c30 -20 92 -67 138 -105 72 -61 82 -73 82 -102 l0 -33 -212 2 -213 3 190
-8 c105 -4 200 -8 213 -9 18 -1 22 -7 24 -38 1 -37 1 -37 5 -5 4 26 9 32 29
32 30 0 64 -16 64 -30 0 -15 -63 -51 -77 -45 -7 2 -13 -1 -13 -8 0 -8 -51 -48
-112 -90 -62 -42 -126 -88 -143 -102 -16 -15 -3 -8 30 16 153 107 318 210 330
205 15 -5 105 -129 105 -143 0 -6 -15 -15 -32 -21 -25 -9 -27 -10 -6 -7 14 3
32 7 40 10 8 3 30 -23 62 -76 l48 -81 -61 -62 -61 -61 -24 30 c-30 36 -120
205 -110 205 3 0 1 7 -6 15 -6 8 -20 40 -30 72 -11 32 -19 51 -19 42 -1 -9 6
-36 14 -59 22 -61 20 -66 -30 -80 -25 -7 -43 -15 -41 -18 3 -2 25 3 50 11 l45
16 24 -52 c13 -29 45 -83 71 -121 l46 -69 -27 -30 c-67 -70 -253 -228 -263
-222 -5 3 -10 0 -10 -8 0 -8 -11 -18 -25 -21 -14 -4 -23 -11 -20 -16 6 -10
-55 -60 -73 -60 -26 0 -10 27 24 39 19 7 34 15 31 17 -2 2 -21 -3 -42 -12 -37
-15 -40 -15 -53 3 -41 55 -51 67 -52 62 0 -3 11 -20 25 -39 31 -41 31 -44 3
-58 -21 -10 -20 -10 8 -5 42 7 52 -12 23 -45 l-24 -26 27 21 27 20 111 -110
c106 -106 110 -112 112 -156 l1 -46 4 43 c2 23 6 42 9 42 4 0 88 -54 103 -67
12 -10 -29 -33 -64 -37 -22 -2 -47 -6 -55 -9 -40 -15 -304 -25 -419 -16 -69 5
-126 11 -128 12 -2 2 -6 25 -9 52 -6 42 -4 50 17 67 l24 19 -23 -11 c-13 -6
-25 -10 -26 -8 -6 8 -40 133 -37 137 1 2 -1 7 -6 10 -5 3 -17 25 -28 49 -10
24 -23 45 -27 49 -5 3 0 -13 11 -36 24 -46 26 -67 9 -74 -7 -3 -3 -6 8 -6 18
-1 25 -12 39 -65 10 -35 16 -69 14 -75 -2 -6 -23 -23 -46 -36 l-41 -25 -51 70
c-28 38 -52 75 -53 81 -2 7 -10 20 -19 30 -9 9 -34 47 -54 84 l-38 67 61 61
60 60 34 -48 c68 -98 76 -96 10 3 l-35 52 24 26 c13 14 76 72 140 129 90 81
119 101 128 92 10 -9 11 -8 6 4 -5 13 11 23 69 47 l75 30 32 -36 31 -37 -26
37 -26 37 27 15 c16 8 24 15 20 16 -5 0 -18 -5 -29 -11 -16 -9 -24 -8 -36 4
-13 14 -12 18 14 42 l29 27 -29 -21 -30 -22 -40 38 -41 38 33 -35 c17 -20 32
-40 31 -45 0 -6 -25 -30 -56 -54 -44 -35 -57 -41 -65 -30 -8 11 -9 11 -5 -3 4
-11 -3 -20 -24 -29 -17 -6 -26 -15 -20 -18 6 -4 -10 -24 -37 -46 -26 -22 -82
-73 -125 -115 l-79 -74 -33 39 c-19 22 -34 43 -35 48 0 4 -4 7 -10 7 -5 0 -34
18 -64 41 l-54 41 29 70 c49 119 173 330 232 395 l20 22 46 -30 c25 -17 37
-22 25 -12 -11 10 -31 25 -45 35 -21 14 -22 18 -9 31 8 8 31 17 51 20 l37 5 5
-51 c2 -29 1 -55 -4 -58 -5 -3 17 -27 48 -53 52 -43 54 -44 16 -7 -39 38 -43
47 -49 105 l-7 65 34 5 c19 3 48 8 64 10 17 3 2 3 -32 1 l-63 -3 0 38 c0 34 7
44 71 105 70 66 181 145 203 145 6 0 36 -16 66 -37z m585 -54 c79 -78 84 -90
40 -103 -15 -4 -27 4 -49 35 -15 22 -53 67 -84 101 l-57 61 35 -8 c25 -5 58
-29 115 -86z m-104 24 c56 -59 109 -125 109 -136 0 -3 -15 -10 -34 -17 -32
-10 -38 -8 -97 33 -35 24 -86 57 -114 72 -27 16 -52 30 -54 32 -7 5 23 36 54
55 52 31 76 24 136 -39z m-1172 0 c-18 -21 -55 -72 -82 -113 -43 -66 -48 -71
-43 -41 14 80 71 163 126 184 31 12 31 6 -1 -30z m1285 26 c19 -9 87 -109 74
-109 -2 0 -30 27 -63 60 -58 59 -61 71 -11 49z m134 -92 c29 -27 28 -37 -6
-37 -23 0 -32 8 -51 47 l-22 46 28 -18 c15 -10 38 -27 51 -38z m-1531 -18
c-13 -30 -27 -66 -30 -80 -5 -21 -19 -31 -65 -48 -32 -11 -67 -30 -77 -41 -10
-11 -22 -20 -27 -20 -27 0 86 146 159 205 31 25 57 44 59 42 3 -2 -6 -28 -19
-58z m1142 24 c72 -42 161 -103 161 -111 0 -4 -29 -22 -65 -40 -79 -39 -108
-35 -160 18 -40 41 -43 64 -16 133 13 34 23 34 80 0z m455 -74 c28 -22 32 -48
15 -98 l-11 -32 -26 38 c-14 21 -36 51 -49 66 -13 16 -21 33 -17 38 10 16 61
10 88 -12z m-98 -25 c8 -19 17 -66 20 -102 l5 -67 -19 36 c-10 20 -33 61 -51
92 -29 52 -30 56 -14 66 31 18 43 12 59 -25z m-35 -89 l43 -80 -82 75 c-45 41
-82 78 -82 81 0 3 12 10 28 15 35 14 40 9 93 -91z m-1011 55 c0 -23 -5 -31
-25 -36 -39 -10 -42 3 -10 36 16 17 30 30 32 30 2 0 3 -13 3 -30z m618 -9 c15
-22 15 -23 -9 -19 -16 2 -25 10 -27 27 -4 29 15 25 36 -8z m340 -57 c45 -42
82 -79 82 -84 0 -5 -37 7 -82 25 -45 19 -111 42 -145 51 -35 9 -63 20 -63 23
0 8 100 59 116 60 6 1 47 -33 92 -75z m-1293 55 c32 -6 84 -20 114 -31 l56
-21 -88 -29 c-49 -15 -123 -44 -164 -63 -42 -19 -79 -33 -82 -30 -9 10 17 135
33 161 19 27 41 30 131 13z m1445 -34 l31 -46 -23 -37 -23 -37 -6 40 c-16 98
-19 125 -15 125 3 0 19 -20 36 -45z m121 -13 c43 -66 72 -122 67 -127 -2 -2
-23 -1 -46 2 -38 5 -46 11 -69 50 -24 41 -25 47 -13 88 7 25 15 45 19 45 3 0
22 -26 42 -58z m-1731 6 c-4 -18 -19 -67 -34 -108 -21 -60 -34 -80 -63 -100
-19 -13 -62 -51 -96 -85 l-60 -60 7 55 c13 101 38 182 70 224 35 45 128 106
162 106 20 0 21 -3 14 -32z m1235 -15 c41 -3 175 -47 259 -86 61 -28 66 -32
45 -38 -23 -7 -23 -7 4 -8 l28 -1 -30 -42 c-17 -24 -55 -69 -84 -102 l-52 -59
-40 74 c-43 78 -162 252 -176 257 -5 2 -9 8 -9 13 0 6 6 7 13 2 6 -4 26 -8 42
-10z m-869 -14 c3 -6 -4 -25 -17 -42 -83 -112 -239 -395 -239 -433 0 -17 -21
-18 -42 -1 -17 13 -42 114 -52 212 -4 33 -9 77 -12 97 -6 37 -5 37 58 69 54
28 270 109 290 109 4 0 10 -5 14 -11z m1303 -55 c12 -19 21 -37 21 -40 0 -2
-20 -4 -45 -4 l-46 0 23 40 c13 22 24 40 25 40 0 0 10 -16 22 -36z m-1679 -44
c0 -20 -5 -30 -15 -30 -8 0 -12 6 -10 15 3 8 7 22 10 30 7 25 15 17 15 -15z
m1735 -60 c14 -27 23 -50 20 -50 -3 0 -28 18 -56 40 -28 22 -55 40 -60 40 -5
0 -9 5 -9 10 0 6 18 10 40 10 38 0 41 -3 65 -50z m84 25 c20 -20 18 -71 -4
-95 -19 -21 -19 -21 -52 42 -17 35 -32 67 -33 72 0 12 73 -3 89 -19z m-1799
-181 c11 -62 23 -119 26 -128 4 -11 0 -16 -12 -17 -17 0 -16 -1 2 -9 15 -6 25
-24 33 -58 10 -42 10 -59 -5 -108 -9 -32 -24 -65 -33 -72 -9 -7 -10 -10 -2 -6
11 6 12 0 6 -32 -4 -21 -13 -78 -19 -126 -6 -47 -14 -89 -17 -92 -6 -6 -46
130 -54 182 -23 149 -26 194 -22 322 5 157 29 287 55 308 15 12 17 9 20 -20 1
-18 12 -83 22 -144z m1565 109 c-3 -38 -13 -107 -21 -154 -14 -77 -19 -88 -45
-103 l-30 -17 -33 73 -33 73 80 97 c44 54 82 98 84 98 2 0 1 -30 -2 -67z m133
4 c34 -27 62 -54 62 -61 0 -7 -9 -21 -19 -30 -19 -18 -21 -16 -68 55 -70 108
-67 103 -52 94 8 -5 42 -30 77 -58z m-74 -81 c10 -37 15 -73 13 -80 -5 -14
-86 -71 -91 -65 -2 2 2 33 10 69 7 36 16 96 20 134 7 65 7 67 19 39 7 -16 20
-59 29 -97z m-1719 3 c-8 -52 -15 -111 -15 -131 0 -32 -3 -37 -30 -43 -16 -4
-46 -18 -66 -31 -20 -14 -38 -23 -41 -20 -2 2 -7 37 -10 78 -6 73 -5 73 32
118 40 49 135 133 142 127 2 -2 -3 -46 -12 -98z m1777 3 c23 -43 23 -43 4 -58
-11 -8 -22 -14 -26 -14 -5 0 -38 112 -48 160 -4 22 45 -39 70 -88z m172 -32
l6 -45 -34 40 c-41 46 -42 52 -19 85 l17 24 12 -29 c6 -17 14 -50 18 -75z
m-2133 -47 c-8 -14 -10 -8 -11 29 0 67 14 96 18 36 2 -26 -2 -56 -7 -65z
m2090 -49 c21 -72 30 -119 25 -137 -10 -41 -21 -33 -35 26 -8 28 -28 84 -46
123 l-33 72 21 21 c12 11 25 17 29 13 4 -4 21 -57 39 -118z m19 59 c21 -33 30
-59 30 -90 0 -24 -4 -43 -10 -43 -5 0 -10 8 -10 18 0 16 -23 91 -45 145 -14
33 6 17 35 -30z m-1093 10 c4 -10 -10 -17 -72 -38 -13 -4 -8 4 15 24 34 31 50
35 57 14z m1003 -55 c37 -83 73 -204 65 -218 -13 -21 -88 -70 -107 -70 -16 0
-18 8 -18 68 0 37 -5 105 -10 151 -11 80 -10 85 11 107 12 13 24 24 26 24 3 0
17 -28 33 -62z m-325 7 c8 -19 22 -51 30 -70 l15 -35 -55 -27 -55 -27 -26 25
c-52 48 -51 56 7 115 29 30 57 54 61 54 4 0 15 -16 23 -35z m251 -172 c5 -85
4 -116 -6 -128 -7 -9 -8 -15 -2 -15 20 0 -23 -263 -46 -287 -21 -20 -28 -5
-35 77 -3 36 -13 101 -22 145 -11 52 -13 81 -6 83 5 2 1 12 -9 22 -29 29 -35
83 -16 153 16 57 21 64 69 94 l52 32 7 -32 c4 -18 10 -82 14 -144z m-1979 145
c-3 -8 -6 -5 -6 6 -1 11 2 17 5 13 3 -3 4 -12 1 -19z m48 -136 c-3 -13 -10
-20 -15 -17 -12 7 -14 158 -2 169 9 10 24 -121 17 -152z m2160 -19 c0 -109
-19 -132 -29 -33 -3 39 -3 89 0 111 11 67 28 19 29 -78z m-2007 14 c2 -50 7
-120 13 -155 9 -60 8 -64 -13 -82 -13 -11 -26 -19 -30 -20 -9 0 -63 134 -84
208 -17 62 -17 62 5 86 23 24 77 55 96 56 6 0 11 -39 13 -93z m1621 48 l-11
-39 -13 24 c-12 22 -12 27 8 42 12 9 23 16 24 14 1 -1 -2 -20 -8 -41z m-1807
-91 c1 -78 -11 -117 -23 -74 -9 34 -11 130 -2 171 l7 34 8 -30 c5 -16 9 -62
10 -101z m1628 35 c-12 -9 -12 -10 3 -5 20 6 127 -68 127 -88 0 -43 -216 -426
-263 -464 -10 -9 -26 -3 -68 26 -87 59 -199 159 -249 222 l-29 36 57 46 c31
25 80 57 107 72 28 15 39 24 25 20 -19 -5 -11 7 35 47 33 29 89 82 125 116
l65 62 40 -40 c34 -33 38 -41 25 -50z m-1252 43 c2 -12 -1 -22 -7 -22 -6 0
-11 4 -11 9 0 5 -3 17 -7 27 -4 12 -2 15 8 12 8 -2 15 -14 17 -26z m1401 -19
c9 -28 10 -45 2 -67 -11 -28 -11 -28 -39 -10 -54 35 -71 49 -72 60 0 8 72 51
91 53 3 1 11 -16 18 -36z m-1326 -8 c26 -20 47 -39 47 -43 0 -7 -79 -52 -91
-52 -4 0 -12 13 -19 30 -12 29 -6 100 8 100 4 0 28 -16 55 -35z m-393 -67 c7
-24 27 -80 47 -126 34 -80 35 -84 18 -102 -10 -11 -21 -20 -24 -20 -4 0 -19
37 -33 83 -44 137 -50 165 -38 187 15 28 18 26 30 -22z m2099 -60 c1 -37 -3
-70 -9 -73 -6 -4 -10 11 -11 37 -1 24 -4 57 -8 73 -4 17 -2 38 3 47 10 17 11
17 18 0 3 -9 7 -47 7 -84z m-1785 7 c-24 -18 -30 -1 -13 41 l11 29 10 -28 c8
-23 7 -31 -8 -42z m181 25 l39 -40 -59 -60 -60 -60 -26 52 c-45 91 -45 91 8
121 27 15 50 27 53 27 3 0 24 -18 45 -40z m1255 9 c0 -20 -15 -26 -24 -10 -8
13 4 42 15 35 5 -3 9 -14 9 -25z m315 -92 l7 -67 -85 -85 c-81 -82 -117 -105
-102 -67 7 18 20 100 30 195 5 45 10 57 24 57 9 0 37 13 61 28 30 19 47 25 52
18 3 -6 9 -41 13 -79z m-317 55 c24 -24 50 -154 54 -262 l3 -85 -60 -32 c-75
-40 -268 -105 -289 -97 -12 5 -1 27 53 107 63 93 178 309 195 365 9 27 20 28
44 4z m-1778 -21 c0 -10 9 -46 21 -80 11 -35 19 -65 17 -67 -2 -2 -16 15 -31
38 -20 31 -27 55 -27 91 0 29 4 46 10 42 6 -3 10 -14 10 -24z m404 -56 c17
-39 52 -105 78 -148 48 -77 48 -78 25 -87 -21 -9 -21 -9 4 -9 21 -1 38 -16 82
-78 31 -42 53 -81 50 -86 -11 -18 -170 29 -293 86 l-65 30 55 13 55 13 -59 -5
c-47 -5 -57 -3 -51 8 14 23 77 102 114 140 19 21 32 40 29 43 -3 3 -30 -25
-61 -62 -31 -38 -65 -79 -77 -93 l-21 -25 6 85 c13 172 41 255 84 247 7 -1 28
-34 45 -72z m1723 -87 c-9 -98 -25 -129 -20 -38 5 81 9 100 19 100 4 0 4 -28
1 -62z m-1927 -33 c10 -39 21 -79 25 -90 9 -27 -31 23 -67 84 -25 42 -26 47
-11 64 9 9 21 16 26 14 5 -1 18 -34 27 -72z m-180 25 c31 -39 31 -40 13 -64
-10 -14 -21 -26 -25 -26 -6 0 -28 88 -28 115 0 22 5 19 40 -25z m2065 -91
c-20 -107 -46 -160 -99 -204 -45 -36 -134 -81 -143 -71 -6 5 52 193 65 211 4
6 37 34 73 63 36 29 77 67 90 85 31 43 35 23 14 -84z m-1915 19 c58 -93 59
-96 19 -68 -47 32 -109 92 -109 105 0 14 21 35 35 35 5 -1 30 -33 55 -72z
m-73 -48 l32 -70 -24 0 c-72 0 -102 46 -70 107 10 18 21 33 24 33 3 -1 20 -32
38 -70z m118 -54 c19 -14 17 -15 -26 -16 -44 0 -46 1 -67 45 -12 25 -22 48
-22 51 0 4 31 -17 115 -80z m1664 -8 c0 -7 -4 -22 -9 -33 -7 -17 -9 -15 -9 13
-1 17 4 32 9 32 6 0 10 -6 9 -12z m-1717 -68 c25 -42 26 -48 15 -88 -6 -23
-16 -41 -22 -39 -12 4 -105 155 -105 172 0 8 14 9 42 6 37 -5 46 -12 70 -51z
m1658 -86 l-20 -47 -73 6 c-70 6 -197 42 -197 56 0 4 37 19 83 34 45 15 114
42 152 60 l70 34 3 -48 c2 -33 -4 -64 -18 -95z m-1587 109 c-35 -56 -35 -57
-54 -21 -10 18 -18 36 -19 41 0 4 20 7 45 7 l45 0 -17 -27z m257 -67 c47 -15
92 -30 100 -33 15 -5 -82 -62 -108 -63 -16 0 -130 99 -160 140 l-22 29 53 -23
c28 -13 90 -35 137 -50z m-224 -16 c5 -44 8 -80 7 -80 -1 0 -16 21 -34 46 -31
46 -31 47 -15 80 8 19 19 34 24 34 5 0 13 -36 18 -80z m105 -107 c11 -13 -17
-33 -45 -33 -18 0 -41 74 -50 160 l-6 55 45 -85 c26 -46 51 -90 56 -97z m87
17 c1 -3 -12 -11 -30 -18 -27 -10 -33 -9 -44 6 -18 23 -84 148 -84 158 0 7
151 -134 158 -146z m304 115 c4 -62 5 -60 -32 -57 -19 2 -39 7 -44 12 -5 5
-16 6 -25 2 -15 -5 -15 -5 0 10 18 19 80 58 92 58 4 0 8 -11 9 -25z m1242 -27
c-54 -93 -150 -197 -211 -232 -13 -7 -15 -5 -8 10 5 10 18 48 31 83 21 60 25
65 66 79 23 8 61 27 83 42 47 33 48 34 39 18z m-1756 -69 c23 -33 42 -65 42
-70 0 -18 -64 -9 -87 13 -23 21 -30 67 -17 102 10 25 18 20 62 -45z m1340 25
c34 -13 94 -27 132 -30 39 -4 70 -10 70 -14 0 -14 -103 -157 -143 -198 -44
-45 -68 -55 -192 -77 -102 -19 -189 -20 -182 -2 40 91 56 136 56 157 0 14 -8
-1 -18 -35 -22 -75 -47 -124 -68 -132 -20 -8 -142 12 -155 25 -5 5 14 23 44
42 29 19 85 63 125 97 57 50 73 59 76 45 3 -12 5 -10 6 6 2 34 97 140 130 145
29 4 29 4 119 -29z m-870 -28 c38 -37 43 -45 38 -76 -5 -33 -5 -33 5 -8 l10
27 73 -62 c39 -35 101 -83 136 -107 82 -56 63 -62 -60 -20 -139 46 -192 71
-186 86 15 37 16 46 1 21 -16 -27 -16 -27 -48 -11 -39 20 -197 124 -197 129 0
3 30 20 68 39 81 41 101 39 160 -18z m692 37 c0 -8 -33 -43 -125 -134 -52 -51
-207 -169 -222 -169 -14 1 -179 123 -236 176 -47 44 -53 54 -49 82 l4 31 67
-7 c90 -10 297 -9 403 1 79 8 87 7 91 -10 4 -15 5 -14 6 4 1 20 6 23 54 32 4
0 7 -2 7 -6z m-662 -9 c13 -4 22 -14 22 -25 0 -26 -12 -24 -40 6 -24 26 -21
29 18 19z m1052 -105 c-30 -82 -55 -116 -100 -139 -22 -11 -40 -18 -40 -16 0
3 22 34 50 70 27 36 61 87 76 113 34 58 41 44 14 -28z m-1266 8 c33 -24 87
-58 119 -76 57 -33 58 -33 40 -54 -10 -11 -37 -28 -60 -39 -40 -18 -44 -18
-68 -2 -29 19 -155 164 -155 180 0 8 29 25 59 33 2 1 31 -18 65 -42z m-47
-108 c35 -36 63 -69 63 -72 0 -4 -12 -7 -27 -7 -21 0 -47 20 -113 87 l-85 86
30 13 c28 12 31 11 50 -14 10 -15 48 -57 82 -93z m-167 49 c11 -23 18 -43 17
-45 -6 -5 -97 69 -97 78 0 5 13 9 30 9 25 0 33 -7 50 -42z m79 -49 c57 -62 58
-72 4 -39 -29 17 -85 102 -66 99 5 -1 32 -28 62 -60z m393 -37 c34 -16 98 -39
140 -52 42 -13 75 -27 72 -31 -7 -12 -114 -50 -184 -64 -64 -14 -64 -14 -115
15 -27 16 -63 40 -80 54 l-30 24 35 15 c19 8 46 26 59 41 14 14 28 26 32 26 4
0 36 -13 71 -28z m887 -48 c-30 -32 -94 -70 -134 -80 -27 -6 -24 -3 23 35 79
63 157 94 111 45z m-1215 7 c13 -6 53 -31 88 -57 52 -39 58 -46 33 -40 -48 12
-90 35 -132 71 -38 35 -35 43 11 26z m149 -43 c110 -83 104 -77 81 -77 -22 -1
-164 87 -164 101 0 18 43 6 83 -24z m937 -4 c-8 -8 -33 -27 -58 -41 -40 -24
-50 -25 -120 -20 -93 8 -124 16 -119 31 2 7 47 14 113 18 60 4 125 11 144 17
50 13 54 13 40 -5z m-398 -20 c59 -19 67 -32 37 -56 -58 -46 -123 -72 -179
-71 -56 0 -220 47 -220 62 0 5 17 11 38 13 21 3 76 22 123 41 90 38 112 40
201 11z m78 -4 c0 -5 -4 -10 -9 -10 -6 0 -13 5 -16 10 -3 6 1 10 9 10 9 0 16
-4 16 -10z m113 -46 c37 -4 67 -10 67 -15 0 -20 -150 -62 -262 -73 -59 -6 -89
7 -40 17 15 3 48 24 72 46 35 32 51 40 70 36 14 -3 55 -8 93 -11z m-528 -44
c39 -16 62 -30 53 -30 -22 0 -140 39 -152 51 -21 19 32 8 99 -21z"/>
<path d="M2221 2844 c0 -11 3 -14 6 -6 3 7 2 16 -1 19 -3 4 -6 -2 -5 -13z"/>
<path d="M2231 2804 c0 -11 3 -14 6 -6 3 7 2 16 -1 19 -3 4 -6 -2 -5 -13z"/>
<path d="M2241 2764 c0 -11 3 -14 6 -6 3 7 2 16 -1 19 -3 4 -6 -2 -5 -13z"/>
<path d="M2585 2705 c-33 -13 -55 -24 -50 -24 10 -1 117 38 124 45 10 9 -17 2
-74 -21z"/>
<path d="M2160 2530 c-30 -16 -50 -29 -45 -29 6 0 35 13 65 29 30 16 51 29 45
29 -5 0 -35 -13 -65 -29z"/>
<path d="M2320 2545 c0 -5 5 -17 10 -25 5 -8 10 -10 10 -5 0 6 -5 17 -10 25
-5 8 -10 11 -10 5z"/>
<path d="M2550 2520 c6 -11 13 -20 16 -20 2 0 0 9 -6 20 -6 11 -13 20 -16 20
-2 0 0 -9 6 -20z"/>
<path d="M2044 2474 c-18 -14 -18 -14 6 -3 31 14 36 19 24 19 -6 0 -19 -7 -30
-16z"/>
<path d="M2590 2450 c11 -22 23 -40 25 -40 3 0 -4 18 -15 40 -11 22 -23 40
-25 40 -3 0 4 -18 15 -40z"/>
<path d="M2385 2410 c9 -16 18 -30 21 -30 2 0 -2 14 -11 30 -9 17 -18 30 -21
30 -2 0 2 -13 11 -30z"/>
<path d="M2650 2335 c0 -5 5 -17 10 -25 5 -8 10 -10 10 -5 0 6 -5 17 -10 25
-5 8 -10 11 -10 5z"/>
<path d="M2385 2155 c-33 -13 -55 -24 -50 -24 10 -1 117 38 124 45 10 9 -17 2
-74 -21z"/>
<path d="M2240 2105 c-36 -13 -60 -24 -54 -24 13 -1 134 39 134 45 0 7 -12 4
-80 -21z"/>
<path d="M2469 2103 c-13 -16 -12 -17 4 -4 9 7 17 15 17 17 0 8 -8 3 -21 -13z"/>
<path d="M2429 2073 c-13 -16 -12 -17 4 -4 9 7 17 15 17 17 0 8 -8 3 -21 -13z"/>
<path d="M2065 2050 c-13 -5 -14 -9 -5 -9 8 0 24 4 35 9 13 5 14 9 5 9 -8 0
-24 -4 -35 -9z"/>
<path d="M2375 2034 l-30 -26 33 22 c17 12 32 23 32 26 0 7 -4 5 -35 -22z"/>
<path d="M2018 2033 c7 -3 16 -2 19 1 4 3 -2 6 -13 5 -11 0 -14 -3 -6 -6z"/>
<path d="M3178 2873 c7 -3 16 -2 19 1 4 3 -2 6 -13 5 -11 0 -14 -3 -6 -6z"/>
<path d="M3138 2863 c7 -3 16 -2 19 1 4 3 -2 6 -13 5 -11 0 -14 -3 -6 -6z"/>
<path d="M3078 2853 c7 -3 16 -2 19 1 4 3 -2 6 -13 5 -11 0 -14 -3 -6 -6z"/>
<path d="M3038 2843 c7 -3 16 -2 19 1 4 3 -2 6 -13 5 -11 0 -14 -3 -6 -6z"/>
<path d="M3288 2313 c7 -3 16 -2 19 1 4 3 -2 6 -13 5 -11 0 -14 -3 -6 -6z"/>
<path d="M2950 2395 c-36 -19 -61 -34 -57 -35 10 0 127 59 127 65 0 7 2 8 -70
-30z"/>
<path d="M2820 2335 c-25 -13 -40 -24 -35 -24 6 0 30 11 55 24 25 13 41 24 35
24 -5 0 -30 -11 -55 -24z"/>
<path d="M2721 2155 c0 -5 6 -30 13 -55 8 -25 15 -36 15 -25 -1 21 -27 98 -28
80z"/>
<path d="M2761 1994 c0 -11 3 -14 6 -6 3 7 2 16 -1 19 -3 4 -6 -2 -5 -13z"/>
<path d="M1860 2000 c-20 -6 -21 -8 -5 -8 11 0 31 4 45 8 20 6 21 8 5 8 -11 0
-31 -4 -45 -8z"/>
<path d="M3672 3350 c-56 -42 -107 -81 -113 -87 -16 -16 47 -106 65 -96 7 5
61 44 119 87 l106 79 -31 41 c-17 23 -34 44 -37 47 -3 4 -52 -28 -109 -71z"/>
<path d="M3878 3244 c-16 -8 -28 -16 -28 -18 0 -2 16 -38 35 -80 19 -43 35
-81 35 -85 0 -5 -49 16 -109 47 -106 55 -110 56 -139 42 l-30 -15 70 -150 c39
-82 71 -151 73 -153 4 -5 55 21 55 28 0 4 -16 42 -36 85 -19 42 -33 79 -31 82
3 2 50 -19 106 -46 110 -56 108 -55 145 -41 l25 9 -24 53 c-13 29 -45 99 -72
155 l-48 101 -27 -14z"/>
<path d="M1033 3162 c-4 -9 -30 -75 -60 -146 -29 -72 -53 -135 -53 -140 0 -10
258 -122 264 -115 7 10 126 309 126 317 0 8 -50 36 -55 30 -1 -2 -20 -48 -42
-103 -41 -98 -54 -114 -82 -96 -12 8 -8 23 19 91 29 69 32 83 20 90 -24 16
-31 7 -64 -73 -30 -75 -44 -88 -74 -69 -10 7 -5 26 21 88 53 122 52 120 17
133 -26 9 -32 8 -37 -7z"/>
<path d="M3916 2840 c-73 -22 -100 -76 -94 -189 7 -140 62 -217 157 -215 95 1
144 56 144 163 -1 122 -40 208 -109 237 -37 16 -56 16 -98 4z m87 -121 c51
-23 63 -104 22 -144 -54 -55 -136 -10 -135 73 1 30 15 53 45 70 25 14 38 15
68 1z"/>
<path d="M877 2713 c-3 -32 -5 -58 -4 -59 1 0 47 -27 102 -59 l99 -58 -40 -18
c-22 -9 -72 -27 -111 -40 l-71 -22 -5 -56 c-2 -31 -3 -57 -2 -59 1 -2 70 27
153 64 l150 66 4 55 c2 39 -1 58 -12 67 -18 16 -250 176 -254 176 -2 0 -6 -26
-9 -57z"/>
<path d="M3853 2335 c-5 -30 -7 -58 -3 -60 3 -2 45 -9 93 -16 48 -7 86 -16 85
-21 -2 -6 -51 -38 -108 -72 l-105 -62 -12 -69 c-7 -37 -11 -70 -10 -72 3 -3
281 -51 284 -49 0 1 4 26 8 58 8 64 15 59 -102 78 -40 7 -73 15 -73 18 0 4 45
33 100 65 54 32 103 64 108 70 9 11 35 138 29 142 -1 1 -54 10 -117 19 -63 10
-127 20 -141 23 -24 4 -26 2 -36 -52z"/>
<path d="M1087 2303 c-11 -3 -16 -11 -13 -21 3 -9 14 -60 25 -112 20 -98 18
-109 -19 -110 -12 0 -20 23 -34 90 -10 51 -23 90 -30 90 -31 -1 -34 -15 -18
-98 14 -73 14 -84 2 -92 -28 -18 -38 -10 -48 38 -6 26 -15 73 -22 105 -11 57
-13 58 -38 52 -15 -4 -29 -8 -31 -11 -4 -4 56 -315 63 -321 2 -2 65 8 141 24
l137 27 -6 43 c-3 24 -18 102 -33 173 -27 135 -28 136 -76 123z"/>
<path d="M2224 1005 c-18 -15 -17 -15 20 -13 51 4 57 -16 9 -28 -30 -7 -39
-14 -41 -34 -3 -24 -1 -25 59 -24 39 0 64 5 67 12 2 8 -11 12 -39 12 -45 0
-45 15 0 22 13 1 29 11 35 21 24 39 -67 65 -110 32z"/>
<path d="M2370 1000 c-25 -25 -25 -41 -2 -69 24 -31 79 -31 104 -1 10 12 18
28 18 36 0 24 -39 54 -70 54 -17 0 -39 -9 -50 -20z m68 -41 c-1 -13 -10 -24
-18 -24 -19 0 -26 45 -8 56 18 11 30 -4 26 -32z"/>
<path d="M2519 1004 c-12 -14 -9 -16 26 -13 49 5 58 -16 11 -25 -36 -7 -60
-28 -54 -47 5 -15 120 -17 125 -2 3 7 -12 13 -39 15 -43 4 -40 7 16 24 36 11
42 26 21 48 -21 21 -88 21 -106 0z"/>
<path d="M2673 1013 c-27 -10 -11 -24 24 -21 22 2 38 -2 40 -9 3 -7 -3 -13
-14 -13 -17 -1 -17 -1 0 -11 27 -16 11 -28 -30 -22 -28 5 -35 3 -31 -8 3 -9
23 -15 56 -17 42 -3 53 0 61 17 8 14 8 22 1 26 -8 5 -8 11 0 20 25 30 -56 59
-107 38z"/>
</g>
</svg>
